<svg xmlns="http://www.w3.org/2000/svg" viewBox="0 0 64 64">
  <defs>
    <linearGradient id="flameOuter" x1="0.5" y1="0" x2="0.5" y2="1">
      <stop offset="0%" stop-color="#f97316" />
      <stop offset="55%" stop-color="#ef4444" />
      <stop offset="100%" stop-color="#991b1b" />
    </linearGradient>
    <linearGradient id="flameInner" x1="0.5" y1="0" x2="0.5" y2="1">
      <stop offset="0%" stop-color="#fde68a" />
      <stop offset="100%" stop-color="#f59e0b" />
    </linearGradient>
  </defs>
  <rect width="64" height="64" rx="14" fill="#09090b" />
  <path
    fill="url(#flameOuter)"
    d="M33 6c2 9-2 13-6 18-4 5-7 9-7 15 0 9 7 17 16 17s16-8 16-18c0-9-6-14-10-19-3-3-6-6-5-13-3 1-4 2-4 0Z"
  />
  <path
    fill="url(#flameInner)"
    d="M33 23c1 5-1 7-3 10-2 3-4 5-4 9 0 6 4 10 9 10s9-5 9-11c0-5-3-8-5-11-2-2-4-3-3-7-2 1-3 1-3 0Z"
  />
</svg>
